<svg width="400" height="72" viewBox="0 0 400 72" fill="none" xmlns="http://www.w3.org/2000/svg">
<path d="M154.31 16V4.76923H157.448C158.187 4.76923 158.828 4.91282 159.372 5.2C159.915 5.47692 160.336 5.87179 160.633 6.38462C160.941 6.89744 161.095 7.50256 161.095 8.2V12.5538C161.095 13.241 160.941 13.8462 160.633 14.3692C160.336 14.8923 159.915 15.2974 159.372 15.5846C158.828 15.8615 158.187 16 157.448 16H154.31ZM155.972 14.4923H157.448C158.064 14.4923 158.546 14.3231 158.895 13.9846C159.254 13.6359 159.433 13.159 159.433 12.5538V8.2C159.433 7.60513 159.254 7.13846 158.895 6.8C158.546 6.45128 158.064 6.27692 157.448 6.27692H155.972V14.4923ZM163.35 16V14.4923H166.319V9.04615H163.735V7.53846H167.935V14.4923H170.658V16H163.35ZM166.966 6.07692C166.607 6.07692 166.319 5.98461 166.104 5.8C165.889 5.60513 165.781 5.34872 165.781 5.03077C165.781 4.70256 165.889 4.44615 166.104 4.26154C166.319 4.06667 166.607 3.96923 166.966 3.96923C167.324 3.96923 167.612 4.06667 167.827 4.26154C168.042 4.44615 168.15 4.70256 168.15 5.03077C168.15 5.34872 168.042 5.60513 167.827 5.8C167.612 5.98461 167.324 6.07692 166.966 6.07692ZM172.744 16V7.53846H174.344V9.15385H174.744L174.236 10.1538C174.236 9.24103 174.436 8.55385 174.836 8.09231C175.236 7.62051 175.831 7.38462 176.621 7.38462C177.524 7.38462 178.236 7.66667 178.759 8.23077C179.293 8.78461 179.559 9.54872 179.559 10.5231V11.0923H177.852V10.6615C177.852 10.0564 177.698 9.59487 177.39 9.27692C177.093 8.94872 176.672 8.78461 176.129 8.78461C175.585 8.78461 175.159 8.94872 174.852 9.27692C174.554 9.60513 174.406 10.0667 174.406 10.6615V16H172.744ZM184.861 16.1538C184.174 16.1538 183.569 16.0205 183.046 15.7538C182.533 15.4769 182.138 15.0923 181.861 14.6C181.584 14.1077 181.446 13.5333 181.446 12.8769V10.6615C181.446 9.99487 181.584 9.42051 181.861 8.93846C182.138 8.44615 182.533 8.06667 183.046 7.8C183.569 7.52308 184.174 7.38462 184.861 7.38462C185.559 7.38462 186.164 7.52308 186.677 7.8C187.189 8.06667 187.584 8.44615 187.861 8.93846C188.138 9.42051 188.277 9.99487 188.277 10.6615V12.1692H183.046V12.8769C183.046 13.5026 183.2 13.9795 183.507 14.3077C183.825 14.6359 184.282 14.8 184.877 14.8C185.359 14.8 185.748 14.7179 186.046 14.5538C186.343 14.3795 186.528 14.1282 186.6 13.8H188.246C188.123 14.5179 187.753 15.0923 187.138 15.5231C186.523 15.9436 185.764 16.1538 184.861 16.1538ZM186.677 11.1692V10.6462C186.677 10.0308 186.523 9.55385 186.215 9.21538C185.907 8.87692 185.456 8.70769 184.861 8.70769C184.277 8.70769 183.825 8.87692 183.507 9.21538C183.2 9.55385 183.046 10.0359 183.046 10.6615V11.0462L186.8 11.0308L186.677 11.1692ZM193.994 16.1538C193.296 16.1538 192.681 16.0256 192.147 15.7692C191.624 15.5026 191.219 15.1231 190.932 14.6308C190.655 14.1282 190.517 13.5436 190.517 12.8769V10.6615C190.517 9.98461 190.655 9.4 190.932 8.90769C191.219 8.41538 191.624 8.04103 192.147 7.78461C192.681 7.51795 193.296 7.38462 193.994 7.38462C195.009 7.38462 195.824 7.65128 196.44 8.18461C197.055 8.71795 197.378 9.44615 197.409 10.3692H195.747C195.717 9.88718 195.547 9.51282 195.24 9.24615C194.932 8.97949 194.517 8.84615 193.994 8.84615C193.43 8.84615 192.983 9.00513 192.655 9.32308C192.327 9.63077 192.163 10.0718 192.163 10.6462V12.8769C192.163 13.4513 192.327 13.8974 192.655 14.2154C192.983 14.5333 193.43 14.6923 193.994 14.6923C194.517 14.6923 194.932 14.559 195.24 14.2923C195.547 14.0256 195.717 13.6513 195.747 13.1692H197.409C197.378 14.0923 197.055 14.8205 196.44 15.3538C195.824 15.8872 195.009 16.1538 193.994 16.1538ZM203.926 16C203.157 16 202.557 15.7897 202.126 15.3692C201.695 14.9487 201.48 14.3641 201.48 13.6154V9.04615H199.141V7.53846H201.48V5.15385H203.141V7.53846H206.449V9.04615H203.141V13.6154C203.141 14.2 203.424 14.4923 203.988 14.4923H206.295V16H203.926ZM212.074 16.1538C211.387 16.1538 210.782 16.0205 210.259 15.7538C209.746 15.4769 209.351 15.0923 209.074 14.6C208.797 14.1077 208.659 13.5333 208.659 12.8769V10.6615C208.659 9.99487 208.797 9.42051 209.074 8.93846C209.351 8.44615 209.746 8.06667 210.259 7.8C210.782 7.52308 211.387 7.38462 212.074 7.38462C212.771 7.38462 213.376 7.52308 213.889 7.8C214.402 8.06667 214.797 8.44615 215.074 8.93846C215.351 9.42051 215.489 9.99487 215.489 10.6615V12.1692H210.259V12.8769C210.259 13.5026 210.412 13.9795 210.72 14.3077C211.038 14.6359 211.494 14.8 212.089 14.8C212.571 14.8 212.961 14.7179 213.259 14.5538C213.556 14.3795 213.741 14.1282 213.812 13.8H215.459C215.335 14.5179 214.966 15.0923 214.351 15.5231C213.735 15.9436 212.976 16.1538 212.074 16.1538ZM213.889 11.1692V10.6462C213.889 10.0308 213.735 9.55385 213.428 9.21538C213.12 8.87692 212.669 8.70769 212.074 8.70769C211.489 8.70769 211.038 8.87692 210.72 9.21538C210.412 9.55385 210.259 10.0359 210.259 10.6615V11.0462L214.012 11.0308L213.889 11.1692ZM220.545 16.1538C219.694 16.1538 219.012 15.8667 218.499 15.2923C217.986 14.7179 217.729 13.9436 217.729 12.9692V10.5846C217.729 9.6 217.986 8.82051 218.499 8.24615C219.012 7.67179 219.694 7.38462 220.545 7.38462C221.242 7.38462 221.796 7.57949 222.206 7.96923C222.617 8.34872 222.822 8.87179 222.822 9.53846L222.468 9.15385H222.853L222.806 7.18461V4.76923H224.468V16H222.822V14.3846H222.468L222.822 14C222.822 14.6667 222.617 15.1949 222.206 15.5846C221.796 15.9641 221.242 16.1538 220.545 16.1538ZM221.114 14.7077C221.637 14.7077 222.047 14.5487 222.345 14.2308C222.653 13.9026 222.806 13.4513 222.806 12.8769V10.6615C222.806 10.0872 222.653 9.64103 222.345 9.32308C222.047 8.99487 221.637 8.83077 221.114 8.83077C220.57 8.83077 220.145 8.98974 219.837 9.30769C219.529 9.61538 219.376 10.0667 219.376 10.6615V12.8769C219.376 13.4718 219.529 13.9282 219.837 14.2462C220.145 14.5538 220.57 14.7077 221.114 14.7077ZM239.887 16.1538C239.189 16.1538 238.635 15.9641 238.225 15.5846C237.815 15.1949 237.61 14.6667 237.61 14L237.964 14.3846H237.61V16H235.964V4.76923H237.625V7.18461L237.579 9.15385H237.964L237.61 9.53846C237.61 8.87179 237.815 8.34872 238.225 7.96923C238.646 7.57949 239.199 7.38462 239.887 7.38462C240.738 7.38462 241.42 7.67179 241.933 8.24615C242.446 8.82051 242.702 9.6 242.702 10.5846V12.9692C242.702 13.9436 242.446 14.7179 241.933 15.2923C241.42 15.8667 240.738 16.1538 239.887 16.1538ZM239.317 14.7077C239.861 14.7077 240.287 14.5538 240.594 14.2462C240.902 13.9282 241.056 13.4718 241.056 12.8769V10.6615C241.056 10.0667 240.902 9.61538 240.594 9.30769C240.287 8.98974 239.861 8.83077 239.317 8.83077C238.794 8.83077 238.379 8.99487 238.071 9.32308C237.774 9.64103 237.625 10.0872 237.625 10.6615V12.8769C237.625 13.4513 237.774 13.9026 238.071 14.2308C238.379 14.5487 238.794 14.7077 239.317 14.7077ZM246.388 18.7692L247.604 15.5077L244.45 7.53846H246.281L248.05 12.3077C248.122 12.5128 248.193 12.759 248.265 13.0462C248.337 13.3333 248.399 13.5692 248.45 13.7538C248.491 13.5692 248.547 13.3333 248.619 13.0462C248.691 12.759 248.763 12.5128 248.834 12.3077L250.496 7.53846H252.265L248.142 18.7692H246.388Z" fill="black"/>
<path d="M14.7879 59V31.6159H19.7771L22.5155 40.3938C22.7906 41.2191 23.0282 42.0194 23.2282 42.7946C23.4283 43.5449 23.5658 44.1076 23.6409 44.4827C23.7409 44.1076 23.8784 43.5449 24.0535 42.7946C24.2536 42.0194 24.4786 41.2191 24.7287 40.3938L27.3546 31.6159H32.3437V59H28.5175V49.7719C28.5175 48.5965 28.5425 47.2961 28.5925 45.8706C28.6675 44.4202 28.7676 42.9697 28.8926 41.5192C29.0176 40.0437 29.1427 38.6432 29.2677 37.3178C29.3928 35.9674 29.5053 34.792 29.6053 33.7916L25.554 47.1086H21.6527L17.5263 33.7916C17.6514 34.767 17.7764 35.9048 17.9015 37.2053C18.0265 38.4807 18.139 39.8436 18.2391 41.2941C18.3391 42.7446 18.4266 44.2076 18.5017 45.6831C18.5767 47.1336 18.6142 48.4965 18.6142 49.7719V59H14.7879ZM37.4683 59V55.3238H44.7082V42.0444H38.4061V38.3682H48.647V55.3238H55.2867V59H37.4683ZM46.2837 34.8045C45.4084 34.8045 44.7082 34.5794 44.183 34.1293C43.6579 33.6541 43.3953 33.0289 43.3953 32.2536C43.3953 31.4534 43.6579 30.8282 44.183 30.378C44.7082 29.9028 45.4084 29.6653 46.2837 29.6653C47.159 29.6653 47.8592 29.9028 48.3844 30.378C48.9096 30.8282 49.1722 31.4534 49.1722 32.2536C49.1722 33.0289 48.9096 33.6541 48.3844 34.1293C47.8592 34.5794 47.159 34.8045 46.2837 34.8045ZM67.9513 59.3751C66.2507 59.3751 64.7502 59.0625 63.4498 58.4373C62.1743 57.7871 61.1865 56.8618 60.4863 55.6614C59.8111 54.436 59.4734 53.0105 59.4734 51.385V45.9832C59.4734 44.3326 59.8111 42.9072 60.4863 41.7068C61.1865 40.5064 62.1743 39.5936 63.4498 38.9684C64.7502 38.3181 66.2507 37.993 67.9513 37.993C70.4271 37.993 72.4152 38.6432 73.9157 39.9437C75.4162 41.2441 76.204 43.0197 76.279 45.2704H72.2277C72.1527 44.0951 71.74 43.1823 70.9898 42.532C70.2395 41.8818 69.2267 41.5567 67.9513 41.5567C66.5758 41.5567 65.4879 41.9443 64.6877 42.7196C63.8874 43.4698 63.4873 44.5452 63.4873 45.9457V51.385C63.4873 52.7854 63.8874 53.8733 64.6877 54.6486C65.4879 55.4238 66.5758 55.8114 67.9513 55.8114C69.2267 55.8114 70.2395 55.4863 70.9898 54.8361C71.74 54.1859 72.1527 53.2731 72.2277 52.0977H76.279C76.204 54.3485 75.4162 56.124 73.9157 57.4245C72.4152 58.7249 70.4271 59.3751 67.9513 59.3751ZM81.8162 59V31.6159H85.8675V38.3682L85.83 42.307H86.8054L85.83 43.2448C85.83 41.5942 86.3177 40.3063 87.293 39.381C88.2683 38.4557 89.6188 37.993 91.3444 37.993C93.395 37.993 95.0331 38.6558 96.2585 39.9812C97.4839 41.2816 98.0966 43.0447 98.0966 45.2704V59H94.0453V45.7206C94.0453 44.3701 93.6826 43.3198 92.9574 42.5696C92.2322 41.8193 91.2443 41.4442 89.9939 41.4442C88.7185 41.4442 87.7057 41.8443 86.9554 42.6446C86.2302 43.4198 85.8675 44.5327 85.8675 45.9832V59H81.8162ZM109.973 59.3751C107.823 59.3751 106.122 58.8249 104.872 57.7246C103.646 56.5992 103.034 55.0737 103.034 53.1481C103.034 51.1974 103.684 49.6719 104.984 48.5715C106.31 47.4462 108.123 46.8835 110.424 46.8835H116.163V44.9703C116.163 43.845 115.813 42.9697 115.113 42.3445C114.412 41.7193 113.425 41.4067 112.149 41.4067C111.024 41.4067 110.086 41.6567 109.336 42.1569C108.585 42.6321 108.148 43.2698 108.023 44.07H104.046C104.272 42.2194 105.122 40.7439 106.597 39.6436C108.098 38.5432 109.986 37.993 112.262 37.993C114.712 37.993 116.651 38.6182 118.076 39.8687C119.502 41.0941 120.214 42.7696 120.214 44.8953V59H116.275V55.2112H115.6L116.275 54.461C116.275 55.9615 115.7 57.1619 114.55 58.0622C113.4 58.9375 111.874 59.3751 109.973 59.3751ZM111.174 56.2616C112.624 56.2616 113.812 55.899 114.737 55.1737C115.688 54.4235 116.163 53.4732 116.163 52.3228V49.6219H110.499C109.448 49.6219 108.61 49.9095 107.985 50.4847C107.385 51.0599 107.085 51.8476 107.085 52.848C107.085 53.8983 107.448 54.7361 108.173 55.3613C108.898 55.9615 109.898 56.2616 111.174 56.2616ZM134.154 59.3751C132.479 59.3751 131.003 59.05 129.728 58.3998C128.477 57.7246 127.515 56.7868 126.839 55.5864C126.164 54.386 125.827 52.9855 125.827 51.385V45.9832C125.827 44.3576 126.164 42.9572 126.839 41.7818C127.515 40.5814 128.477 39.6561 129.728 39.0059C131.003 38.3306 132.479 37.993 134.154 37.993C135.855 37.993 137.33 38.3306 138.581 39.0059C139.831 39.6561 140.794 40.5814 141.469 41.7818C142.144 42.9572 142.482 44.3576 142.482 45.9832V49.6594H129.728V51.385C129.728 52.9105 130.103 54.0734 130.853 54.8736C131.628 55.6739 132.741 56.074 134.192 56.074C135.367 56.074 136.317 55.874 137.043 55.4738C137.768 55.0487 138.218 54.436 138.393 53.6357H142.407C142.107 55.3863 141.207 56.7868 139.706 57.8371C138.206 58.8625 136.355 59.3751 134.154 59.3751ZM138.581 47.2211V45.9457C138.581 44.4452 138.206 43.2823 137.455 42.457C136.705 41.6317 135.605 41.2191 134.154 41.2191C132.729 41.2191 131.628 41.6317 130.853 42.457C130.103 43.2823 129.728 44.4577 129.728 45.9832V46.921L138.881 46.8835L138.581 47.2211ZM159.235 59C157.96 59 156.847 58.7499 155.897 58.2498C154.947 57.7246 154.196 56.9868 153.646 56.0365C153.121 55.0862 152.858 53.9858 152.858 52.7354V35.2921H146.106V31.6159H156.91V52.7354C156.91 53.5357 157.135 54.1734 157.585 54.6486C158.035 55.0987 158.648 55.3238 159.423 55.3238H165.8V59H159.235ZM190.867 59L197.844 31.6159H203.171L210.148 59H206.059L204.409 52.0602H196.644L194.993 59H190.867ZM197.394 48.7216H203.621L201.745 40.8065C201.42 39.406 201.145 38.1931 200.92 37.1678C200.72 36.1174 200.582 35.4047 200.507 35.0295C200.432 35.4047 200.295 36.1174 200.095 37.1678C199.895 38.1931 199.62 39.3935 199.269 40.769L197.394 48.7216ZM224.088 59.3751C222.387 59.3751 221.037 58.9125 220.037 57.9872C219.036 57.0368 218.536 55.7489 218.536 54.1234L219.399 55.0612H218.536V59H214.522V31.6159H218.574V37.5054L218.461 42.307H219.399L218.536 43.2448C218.536 41.6192 219.036 40.3438 220.037 39.4185C221.062 38.4682 222.412 37.993 224.088 37.993C226.164 37.993 227.827 38.6933 229.077 40.0937C230.328 41.4942 230.953 43.3948 230.953 45.7956V51.61C230.953 53.9858 230.328 55.874 229.077 57.2744C227.827 58.6749 226.164 59.3751 224.088 59.3751ZM222.7 55.849C224.025 55.849 225.063 55.4738 225.814 54.7236C226.564 53.9483 226.939 52.8355 226.939 51.385V45.9832C226.939 44.5327 226.564 43.4323 225.814 42.6821C225.063 41.9068 224.025 41.5192 222.7 41.5192C221.425 41.5192 220.412 41.9193 219.662 42.7196C218.936 43.4949 218.574 44.5827 218.574 45.9832V51.385C218.574 52.7854 218.936 53.8858 219.662 54.6861C220.412 55.4613 221.425 55.849 222.7 55.849ZM244.743 59.3751C243.067 59.3751 241.592 59.05 240.316 58.3998C239.066 57.7246 238.103 56.7868 237.428 55.5864C236.753 54.386 236.415 52.9855 236.415 51.385V45.9832C236.415 44.3576 236.753 42.9572 237.428 41.7818C238.103 40.5814 239.066 39.6561 240.316 39.0059C241.592 38.3306 243.067 37.993 244.743 37.993C246.443 37.993 247.919 38.3306 249.169 39.0059C250.42 39.6561 251.382 40.5814 252.058 41.7818C252.733 42.9572 253.07 44.3576 253.07 45.9832V49.6594H240.316V51.385C240.316 52.9105 240.691 54.0734 241.442 54.8736C242.217 55.6739 243.33 56.074 244.78 56.074C245.956 56.074 246.906 55.874 247.631 55.4738C248.356 55.0487 248.807 54.436 248.982 53.6357H252.995C252.695 55.3863 251.795 56.7868 250.295 57.8371C248.794 58.8625 246.943 59.3751 244.743 59.3751ZM249.169 47.2211V45.9457C249.169 44.4452 248.794 43.2823 248.044 42.457C247.294 41.6317 246.193 41.2191 244.743 41.2191C243.317 41.2191 242.217 41.6317 241.442 42.457C240.691 43.2823 240.316 44.4577 240.316 45.9832V46.921L249.469 46.8835L249.169 47.2211ZM259.433 59V38.3682H263.334V42.307H264.31L263.072 44.7453C263.072 42.5195 263.559 40.844 264.535 39.7186C265.51 38.5682 266.96 37.993 268.886 37.993C271.087 37.993 272.825 38.6808 274.1 40.0562C275.401 41.4067 276.051 43.2698 276.051 45.6456V47.0335H271.887V45.9832C271.887 44.5077 271.512 43.3823 270.762 42.6071C270.036 41.8068 269.011 41.4067 267.686 41.4067C266.36 41.4067 265.322 41.8068 264.572 42.6071C263.847 43.4073 263.484 44.5327 263.484 45.9832V59H259.433ZM280.875 59V38.3682H284.889V42.307H285.865L284.889 43.2448C284.889 41.5942 285.377 40.3063 286.352 39.381C287.328 38.4557 288.678 37.993 290.404 37.993C292.454 37.993 294.092 38.6558 295.318 39.9812C296.543 41.2816 297.156 43.0447 297.156 45.2704V59H293.104V45.7206C293.104 44.3701 292.742 43.3323 292.017 42.6071C291.291 41.8818 290.304 41.5192 289.053 41.5192C287.778 41.5192 286.765 41.9068 286.015 42.6821C285.289 43.4323 284.927 44.5327 284.927 45.9832V59H280.875ZM309.033 59.3751C306.882 59.3751 305.181 58.8249 303.931 57.7246C302.705 56.5992 302.093 55.0737 302.093 53.1481C302.093 51.1974 302.743 49.6719 304.043 48.5715C305.369 47.4462 307.182 46.8835 309.483 46.8835H315.222V44.9703C315.222 43.845 314.872 42.9697 314.172 42.3445C313.472 41.7193 312.484 41.4067 311.208 41.4067C310.083 41.4067 309.145 41.6567 308.395 42.1569C307.645 42.6321 307.207 43.2698 307.082 44.07H303.106C303.331 42.2194 304.181 40.7439 305.656 39.6436C307.157 38.5432 309.045 37.993 311.321 37.993C313.772 37.993 315.71 38.6182 317.135 39.8687C318.561 41.0941 319.273 42.7696 319.273 44.8953V59H315.335V55.2112H314.659L315.335 54.461C315.335 55.9615 314.759 57.1619 313.609 58.0622C312.459 58.9375 310.933 59.3751 309.033 59.3751ZM310.233 56.2616C311.683 56.2616 312.871 55.899 313.797 55.1737C314.747 54.4235 315.222 53.4732 315.222 52.3228V49.6219H309.558C308.507 49.6219 307.67 49.9095 307.044 50.4847C306.444 51.0599 306.144 51.8476 306.144 52.848C306.144 53.8983 306.507 54.7361 307.232 55.3613C307.957 55.9615 308.958 56.2616 310.233 56.2616ZM335.464 59C333.589 59 332.126 58.4873 331.075 57.462C330.025 56.4366 329.5 55.0112 329.5 53.1856V42.0444H323.798V38.3682H329.5V32.5537H333.551V38.3682H341.616V42.0444H333.551V53.1856C333.551 54.611 334.239 55.3238 335.614 55.3238H341.241V59H335.464ZM347.228 59V31.6159H351.28V38.3682L351.242 42.307H352.218L351.242 43.2448C351.242 41.5942 351.73 40.3063 352.705 39.381C353.681 38.4557 355.031 37.993 356.757 37.993C358.807 37.993 360.445 38.6558 361.671 39.9812C362.896 41.2816 363.509 43.0447 363.509 45.2704V59H359.457V45.7206C359.457 44.3701 359.095 43.3198 358.37 42.5696C357.644 41.8193 356.657 41.4442 355.406 41.4442C354.131 41.4442 353.118 41.8443 352.368 42.6446C351.642 43.4198 351.28 44.5327 351.28 45.9832V59H347.228ZM372.647 65.7522L375.611 57.7996L367.921 38.3682H372.385L376.699 49.997C376.874 50.4972 377.049 51.0974 377.224 51.7976C377.399 52.4978 377.549 53.073 377.674 53.5232C377.774 53.073 377.911 52.4978 378.087 51.7976C378.262 51.0974 378.437 50.4972 378.612 49.997L382.663 38.3682H386.977L376.924 65.7522H372.647Z" fill="black"/>
<rect x="397.5" y="24.5" width="45" height="395" transform="rotate(90 397.5 24.5)" stroke="#353539"/>
<rect x="400" y="66" width="6" height="6" transform="rotate(90 400 66)" fill="#212126"/>
<rect x="6" y="66" width="6" height="6" transform="rotate(90 6 66)" fill="#212126"/>
<rect x="400" y="22" width="6" height="6" transform="rotate(90 400 22)" fill="#212126"/>
<rect x="6" y="21" width="6" height="6" transform="rotate(90 6 21)" fill="#212126"/>
</svg>
